ffmpeg version 4.2.7-0ubuntu0.1 Copyright (c) 2000-2022 the FFmpeg developers
  built with gcc 9 (Ubuntu 9.4.0-1ubuntu1~20.04.1)
  configuration: --prefix=/usr --extra-version=0ubuntu0.1 --toolchain=hardened --libdir=/usr/lib/x86_64-linux-gnu --incdir=/usr/include/x86_64-linux-gnu --arch=amd64 --enable-gpl --disable-stripping --enable-avresample --disable-filter=resample --enable-avisynth --enable-gnutls --enable-ladspa --enable-libaom --enable-libass --enable-libbluray --enable-libbs2b --enable-libcaca --enable-libcdio --enable-libcodec2 --enable-libflite --enable-libfontconfig --enable-libfreetype --enable-libfribidi --enable-libgme --enable-libgsm --enable-libjack --enable-libmp3lame --enable-libmysofa --enable-libopenjpeg --enable-libopenmpt --enable-libopus --enable-libpulse --enable-librsvg --enable-librubberband --enable-libshine --enable-libsnappy --enable-libsoxr --enable-libspeex --enable-libssh --enable-libtheora --enable-libtwolame --enable-libvidstab --enable-libvorbis --enable-libvpx --enable-libwavpack --enable-libwebp --enable-libx265 --enable-libxml2 --enable-libxvid --enable-libzmq --enable-libzvbi --enable-lv2 --enable-omx --enable-openal --enable-opencl --enable-opengl --enable-sdl2 --enable-libdc1394 --enable-libdrm --enable-libiec61883 --enable-nvenc --enable-chromaprint --enable-frei0r --enable-libx264 --enable-shared
  libavutil      56. 31.100 / 56. 31.100
  libavcodec     58. 54.100 / 58. 54.100
  libavformat    58. 29.100 / 58. 29.100
  libavdevice    58.  8.100 / 58.  8.100
  libavfilter     7. 57.100 /  7. 57.100
  libavresample   4.  0.  0 /  4.  0.  0
  libswscale      5.  5.100 /  5.  5.100
  libswresample   3.  5.100 /  3.  5.100
  libpostproc    55.  5.100 / 55.  5.100
Input #0, image2, from '/tmp/jl_PkIoGX/proc1_%04d.png':
  Duration: 00:00:04.52, start: 0.000000, bitrate: N/A
    Stream #0:0: Video: png, rgb24(pc), 1200x600, 25 fps, 25 tbr, 25 tbn, 25 tbc
Stream mapping:
  Stream #0:0 -> #0:0 (png (native) -> h264 (libx264))
Press [q] to stop, [?] for help
[libx264 @ 0x55e1dd26a540] using cpu capabilities: MMX2 SSE2Fast SSSE3 SSE4.2 AVX FMA3 BMI2 AVX2 AVX512
[libx264 @ 0x55e1dd26a540] profile High, level 3.1
[libx264 @ 0x55e1dd26a540] 264 - core 155 r2917 0a84d98 - H.264/MPEG-4 AVC codec - Copyleft 2003-2018 - http://www.videolan.org/x264.html - options: cabac=1 ref=3 deblock=1:0:0 analyse=0x3:0x113 me=hex subme=7 psy=1 psy_rd=1.00:0.00 mixed_ref=1 me_range=16 chroma_me=1 trellis=1 8x8dct=1 cqm=0 deadzone=21,11 fast_pskip=1 chroma_qp_offset=-2 threads=3 lookahead_threads=1 sliced_threads=0 nr=0 decimate=1 interlaced=0 bluray_compat=0 constrained_intra=0 bframes=3 b_pyramid=2 b_adapt=1 b_bias=0 direct=1 weightb=1 open_gop=0 weightp=2 keyint=250 keyint_min=25 scenecut=40 intra_refresh=0 rc_lookahead=40 rc=crf mbtree=1 crf=23.0 qcomp=0.60 qpmin=0 qpmax=69 qpstep=4 ip_ratio=1.40 aq=1:1.00
Output #0, mp4, to 'vorticity_proc1.mp4':
  Metadata:
    encoder         : Lavf58.29.100
    Stream #0:0: Video: h264 (libx264) (avc1 / 0x31637661), yuv420p, 1200x600, q=-1--1, 25 fps, 12800 tbn, 25 tbc
    Metadata:
      encoder         : Lavc58.54.100 libx264
    Side data:
      cpb: bitrate max/min/avg: 0/0/0 buffer size: 0 vbv_delay: -1
frame=   45 fps=0.0 q=0.0 size=       0kB time=00:00:00.00 bitrate=N/A speed=   0x    frame=   67 fps= 66 q=28.0 size=       0kB time=00:00:00.68 bitrate=   0.6kbits/s speed=0.671x    frame=   88 fps= 57 q=28.0 size=       0kB time=00:00:01.52 bitrate=   0.3kbits/s speed=0.988x    frame=  108 fps= 53 q=28.0 size=       0kB time=00:00:02.32 bitrate=   0.2kbits/s speed=1.13x    frame=  127 fps= 50 q=28.0 size=       0kB time=00:00:03.08 bitrate=   0.1kbits/s speed= 1.2x    frame=  148 fps= 48 q=28.0 size=     256kB time=00:00:03.92 bitrate= 535.1kbits/s speed=1.28x    frame=  170 fps= 48 q=28.0 size=     256kB time=00:00:04.80 bitrate= 437.0kbits/s speed=1.34x    frame=  193 fps= 47 q=28.0 size=     256kB time=00:00:05.72 bitrate= 366.7kbits/s speed= 1.4x    frame=  214 fps= 47 q=28.0 size=     256kB time=00:00:06.56 bitrate= 319.7kbits/s speed=1.43x    frame=  239 fps= 47 q=28.0 size=     512kB time=00:00:07.56 bitrate= 554.8kbits/s speed=1.48x    frame=  266 fps= 47 q=28.0 size=     512kB time=00:00:08.64 bitrate= 485.5kbits/s speed=1.54x    frame=  283 fps= 44 q=-1.0 Lsize=     823kB time=00:00:11.20 bitrate= 602.2kbits/s speed=1.75x    
video:819kB audio:0kB subtitle:0kB other streams:0kB global headers:0kB muxing overhead: 0.502210%
[libx264 @ 0x55e1dd26a540] frame I:2     Avg QP:16.64  size: 37870
[libx264 @ 0x55e1dd26a540] frame P:73    Avg QP:25.20  size:  8184
[libx264 @ 0x55e1dd26a540] frame B:208   Avg QP:18.87  size:   793
[libx264 @ 0x55e1dd26a540] consecutive B-frames:  0.7%  2.8%  3.2% 93.3%
[libx264 @ 0x55e1dd26a540] mb I  I16..4: 34.8% 39.3% 25.8%
[libx264 @ 0x55e1dd26a540] mb P  I16..4:  0.3%  1.5%  1.0%  P16..4:  5.7%  6.7%  4.5%  0.0%  0.0%    skip:80.3%
[libx264 @ 0x55e1dd26a540] mb B  I16..4:  0.1%  0.1%  0.0%  B16..8:  6.8%  1.0%  0.4%  direct: 0.3%  skip:91.3%  L0:45.1% L1:46.8% BI: 8.1%
[libx264 @ 0x55e1dd26a540] 8x8 transform intra:46.3% inter:38.3%
[libx264 @ 0x55e1dd26a540] coded y,uvDC,uvAC intra: 39.5% 41.9% 34.0% inter: 2.7% 2.2% 0.6%
[libx264 @ 0x55e1dd26a540] i16 v,h,dc,p: 71% 18%  7%  3%
[libx264 @ 0x55e1dd26a540] i8 v,h,dc,ddl,ddr,vr,hd,vl,hu: 26% 11% 33%  5%  5%  4%  6%  4%  7%
[libx264 @ 0x55e1dd26a540] i4 v,h,dc,ddl,ddr,vr,hd,vl,hu: 28% 18% 17%  5%  6%  6%  9%  4%  7%
[libx264 @ 0x55e1dd26a540] i8c dc,h,v,p: 68% 14% 13%  5%
[libx264 @ 0x55e1dd26a540] Weighted P-Frames: Y:0.0% UV:0.0%
[libx264 @ 0x55e1dd26a540] ref P L0: 69.6% 15.1% 10.4%  4.9%
[libx264 @ 0x55e1dd26a540] ref B L0: 85.1% 11.7%  3.1%
[libx264 @ 0x55e1dd26a540] ref B L1: 98.3%  1.7%
[libx264 @ 0x55e1dd26a540] kb/s:592.37
